<svg width="145" height="191" viewBox="0 0 145 191" fill="none" xmlns="http://www.w3.org/2000/svg">
<path d="M116.882 124.425L95.4063 54.8831H98.0136C99.1117 54.8831 100.002 53.9929 100.002 52.8946V39.1076C100.002 38.0095 99.1119 37.119 98.0136 37.119H44.9866C43.8885 37.119 42.998 38.0093 42.998 39.1076V52.8946C42.998 53.9927 43.8882 54.8831 44.9866 54.8831H47.5943L34.3069 97.9111C33.983 98.9606 34.5709 100.074 35.6201 100.398C35.8156 100.458 36.013 100.487 36.2077 100.487C37.057 100.487 37.8433 99.9384 38.1073 99.0846L41.2768 88.8204H90.6146C90.6168 88.8279 90.6185 88.8356 90.6208 88.843C90.6208 88.843 93.0018 97.7575 93.5936 99.9999C93.829 100.892 94.6339 101.481 95.515 101.481C95.6829 101.481 95.8538 101.46 96.0237 101.415C97.0856 101.135 97.7191 100.047 97.4388 98.9849C96.846 96.7388 94.7314 88.8207 94.7314 88.8207H101.725L112.287 123.023H30.7132L34.995 109.16C35.319 108.111 34.7311 106.997 33.6819 106.673C32.6326 106.349 31.5191 106.937 31.1952 107.987L26.1182 124.425C25.7295 125.683 26.7028 127 28.0177 127H114.982C116.297 127 117.271 125.683 116.882 124.425ZM46.9749 50.9062V41.0962H96.025V50.9062H46.9749ZM93.667 84.8437V84.8435C92.215 79.4137 90.7388 73.8649 89.3334 68.3831C89.0605 67.3192 87.9776 66.6783 86.9132 66.9509C85.8496 67.2237 85.2081 68.3069 85.481 69.3711C86.8026 74.5257 88.1845 79.7322 89.5502 84.8437H42.5046L51.7563 54.8834H91.2439L100.496 84.8437H93.667Z" fill="black"/>
<path d="M86.8778 18.0293C82.565 18.0293 79.0564 21.5382 79.0564 25.8507C79.0564 30.1635 82.5653 33.6721 86.8778 33.6721C91.1906 33.6721 94.6992 30.1633 94.6992 25.8507C94.6992 21.5382 91.1904 18.0293 86.8778 18.0293ZM86.8778 29.6952C84.758 29.6952 83.0333 27.9705 83.0333 25.8507C83.0333 23.7309 84.758 22.0062 86.8778 22.0062C88.9976 22.0062 90.7223 23.7309 90.7223 25.8507C90.7223 27.9705 88.9976 29.6952 86.8778 29.6952Z" fill="black"/>
<path d="M73.0906 0C69.3625 0 66.3296 3.03287 66.3296 6.76101C66.3296 10.4892 69.3625 13.522 73.0906 13.522C76.8187 13.522 79.8516 10.4892 79.8516 6.76101C79.8516 3.03287 76.8187 0 73.0906 0ZM73.0906 9.54484C71.5554 9.54484 70.3068 8.29618 70.3068 6.76101C70.3068 5.22585 71.5554 3.97718 73.0906 3.97718C74.6258 3.97718 75.8744 5.22585 75.8744 6.76101C75.8744 8.29618 74.6258 9.54484 73.0906 9.54484Z" fill="black"/>
<path d="M56.1222 13.787C51.8094 13.787 48.3008 17.2959 48.3008 21.6084C48.3008 25.9212 51.8097 29.4298 56.1222 29.4298C60.435 29.4298 63.9436 25.9209 63.9436 21.6084C63.9439 17.2959 60.435 13.787 56.1222 13.787ZM56.1222 25.4531C54.0024 25.4531 52.2777 23.7285 52.2777 21.6086C52.2777 19.4888 54.0024 17.7642 56.1222 17.7642C58.242 17.7642 59.9667 19.4888 59.9667 21.6086C59.9667 23.7285 58.242 25.4531 56.1222 25.4531Z" fill="black"/>
<path d="M78.9238 65.7538H64.0762C62.9781 65.7538 62.0876 66.644 62.0876 67.7424C62.0876 68.8407 62.9779 69.731 64.0762 69.731H78.9238C80.0219 69.731 80.9124 68.8407 80.9124 67.7424C80.9124 66.644 80.0219 65.7538 78.9238 65.7538Z" fill="black"/>
<path d="M78.9238 75.2986H64.0762C62.9781 75.2986 62.0876 76.1888 62.0876 77.2872C62.0876 78.3855 62.9779 79.2758 64.0762 79.2758H78.9238C80.0219 79.2758 80.9124 78.3855 80.9124 77.2872C80.9124 76.1888 80.0219 75.2986 78.9238 75.2986Z" fill="black"/>
<path d="M78.9238 94.3883H64.0762C62.9781 94.3883 62.0876 95.2785 62.0876 96.3769C62.0876 97.475 62.9779 98.3655 64.0762 98.3655H78.9238C80.0219 98.3655 80.9124 97.4752 80.9124 96.3769C80.9124 95.2785 80.0219 94.3883 78.9238 94.3883Z" fill="black"/>
<path d="M78.9238 103.933H64.0762C62.9781 103.933 62.0876 104.823 62.0876 105.922C62.0876 107.02 62.9779 107.91 64.0762 107.91H78.9238C80.0219 107.91 80.9124 107.02 80.9124 105.922C80.9124 104.824 80.0219 103.933 78.9238 103.933Z" fill="black"/>
<path d="M78.9238 113.478H64.0762C62.9781 113.478 62.0876 114.368 62.0876 115.467C62.0876 116.565 62.9779 117.455 64.0762 117.455H78.9238C80.0219 117.455 80.9124 116.565 80.9124 115.467C80.9124 114.369 80.0219 113.478 78.9238 113.478Z" fill="black"/>
<path d="M99.9406 108.612L99.6667 107.54C99.3946 106.476 98.3119 105.836 97.2473 106.107C96.1834 106.379 95.5414 107.462 95.8138 108.526L96.0869 109.594C96.3161 110.494 97.1247 111.092 98.0122 111.092C98.1747 111.092 98.3399 111.072 98.5046 111.03C99.5687 110.759 100.211 109.677 99.9406 108.612Z" fill="black"/>
<path d="M45.38 190.02L45.32 152.04H52.04V155.94C52.68 154.9 53.38 154.06 54.14 153.42C54.94 152.74 55.82 152.24 56.78 151.92C57.78 151.6 58.82 151.44 59.9 151.44C61.42 151.44 62.84 151.76 64.16 152.4C65.52 153 66.7 153.92 67.7 155.16C68.7 156.4 69.48 157.94 70.04 159.78C70.64 161.58 70.94 163.7 70.94 166.14C70.94 168.58 70.64 170.72 70.04 172.56C69.44 174.4 68.6 175.92 67.52 177.12C66.48 178.32 65.28 179.22 63.92 179.82C62.6 180.42 61.22 180.72 59.78 180.72C58.78 180.72 57.8 180.6 56.84 180.36C55.92 180.12 55.06 179.78 54.26 179.34C53.46 178.86 52.8 178.28 52.28 177.6V190.02H45.38ZM57.92 175.44C58.8 175.44 59.62 175.28 60.38 174.96C61.14 174.64 61.8 174.12 62.36 173.4C62.96 172.64 63.42 171.64 63.74 170.4C64.06 169.16 64.22 167.62 64.22 165.78C64.22 163.94 63.98 162.36 63.5 161.04C63.02 159.68 62.34 158.64 61.46 157.92C60.58 157.2 59.52 156.82 58.28 156.78C57.32 156.74 56.46 156.9 55.7 157.26C54.98 157.62 54.36 158.2 53.84 159C53.32 159.8 52.92 160.82 52.64 162.06C52.36 163.3 52.22 164.8 52.22 166.56C52.26 167.76 52.36 168.84 52.52 169.8C52.68 170.76 52.9 171.6 53.18 172.32C53.5 173 53.88 173.58 54.32 174.06C54.76 174.5 55.28 174.84 55.88 175.08C56.48 175.32 57.16 175.44 57.92 175.44ZM74.78 142.62H81.56H82.16V143.16C81.92 143.4 81.76 143.66 81.68 143.94C81.64 144.22 81.62 144.7 81.62 145.38V157.8H93.14V142.62H99.98H100.52V143.16C100.28 143.4 100.14 143.66 100.1 143.94C100.06 144.22 100.04 144.7 100.04 145.38V180H93.14V163.2H81.62V180H74.78V142.62Z" fill="black"/>
</svg>
