<svg width="99" height="131" viewBox="0 0 99 131" fill="none" xmlns="http://www.w3.org/2000/svg">
<path d="M18.9585 4.40541C18.81 3.41541 19.7505 2.77191 20.493 2.87091C20.691 2.87091 20.8395 2.92041 21.0375 3.01941C31.1355 8.11791 40.3425 16.7309 47.223 25.6904C50.5395 29.9969 53.3115 34.7984 54.6975 40.1444C56.2815 46.1834 56.43 52.6679 57.0735 58.8554C57.123 59.2019 57.024 59.4494 56.8755 59.6474C56.6775 59.9939 56.331 60.2414 55.836 60.2414C49.9455 60.2909 44.6985 56.8754 40.491 53.1134C35.64 48.7574 30.789 43.5599 27.621 37.7684C21.9285 27.3239 20.5425 15.9884 18.9585 4.40541ZM44.7975 26.5319C38.511 18.6614 30.591 11.0384 21.681 6.13791C22.3245 11.0879 22.968 16.0874 24.057 20.9879C25.0965 25.8389 26.73 30.1454 28.8585 34.6499C31.482 40.1444 35.64 44.9459 39.996 49.2029C43.956 53.0639 48.807 57.1724 54.549 57.7169C54.0045 51.9749 53.8065 45.9854 52.272 40.4414C50.787 35.2934 48.0645 30.6404 44.7975 26.5319ZM64.3499 9.55341C64.5975 8.26641 66.2805 8.51391 66.6765 9.50391C66.7755 9.65241 66.8745 9.85041 66.924 10.0979C67.716 16.4339 71.2305 22.2254 75.141 27.1259C78.5565 31.3829 82.5165 35.3429 84.6945 40.3919C87.021 45.7874 87.2685 52.5194 87.1695 58.3109C87.021 64.8944 84.4965 71.2304 84.7935 77.8139C84.7935 78.2099 84.645 78.5564 84.3975 78.7544C84.15 79.0514 83.754 79.1999 83.2095 79.0019C72.2205 74.6459 63.063 64.2014 60.6375 52.5689C59.202 45.6884 59.6475 38.6099 60.5385 31.6799C61.5285 24.2549 62.8154 16.8794 64.3499 9.55341ZM70.9335 25.5419C68.7555 22.3739 66.924 19.0574 65.736 15.4439C64.7954 20.2949 63.954 25.1954 63.3105 30.0959C62.4195 36.7289 61.7265 43.5599 62.766 50.2424C64.449 61.0829 72.27 71.2799 82.3185 75.9329C82.467 69.9929 84.5954 64.3004 84.6945 58.3109C84.843 51.9254 84.4965 44.5994 81.2295 38.9564C78.309 34.1054 74.1015 30.1949 70.9335 25.5419ZM7.47446 55.1429C7.67246 54.7964 8.01896 54.5984 8.51396 54.6479C16.5825 55.4399 24.651 56.5289 32.5215 58.4099C39.501 60.0929 46.629 61.5779 53.064 64.9439C65.142 71.2304 74.2995 81.8234 81.7245 93.0104C81.972 93.4064 81.972 93.8024 81.8235 94.0994C81.7245 94.4459 81.4275 94.6934 80.982 94.7924C66.6765 97.8614 51.8265 95.4854 39.1545 88.3574C25.938 80.9324 13.86 70.5374 7.12796 56.6279C6.88046 56.0834 7.07846 55.4894 7.47446 55.1429ZM31.4325 60.6869C24.453 59.0534 17.3745 58.0634 10.2465 57.2714C16.731 69.5474 27.72 79.1009 39.699 85.8329C51.6285 92.5154 65.142 95.2379 78.606 92.7629C71.577 82.4669 63.0135 72.8639 51.8265 67.0229C45.4905 63.7559 38.313 62.3204 31.4325 60.6869Z" fill="#77AD3A"/>
<path d="M65.44 52.3063C66.628 55.8703 68.509 59.1868 70.6375 62.4043C73.8055 67.0573 78.0625 70.9678 80.9335 75.8188C84.25 81.4618 84.547 88.7878 84.3985 95.1733C84.25 101.113 82.171 106.855 82.0225 112.795C72.0235 108.142 64.153 97.9453 62.47 87.1048C61.4305 80.4223 62.074 73.6408 63.0145 66.9583C63.7075 62.0578 64.4995 57.1573 65.44 52.3063ZM21.385 43.0003C30.295 47.9503 38.215 55.5238 44.5015 63.3943C47.7685 67.5028 50.5405 72.1558 51.9265 77.2543C53.461 82.7983 53.659 88.7878 54.2035 94.5298C48.4615 94.0348 43.6105 89.8768 39.6505 86.0158C35.2945 81.7588 31.1365 76.9573 28.513 71.4628C26.3845 67.0078 24.751 62.6518 23.7115 57.8008C22.7215 52.9498 22.078 47.9503 21.385 43.0003ZM10 94.1338C17.128 94.8763 24.2065 95.8663 31.186 97.5493C38.0665 99.1828 45.244 100.618 51.58 103.935C62.767 109.776 71.3305 119.329 78.3595 129.675C64.8955 132.15 51.3325 129.427 39.4525 122.745C27.4735 116.013 16.4845 106.459 10 94.1338Z" fill="#B9DD80"/>
</svg>
