<svg width="157" height="136" viewBox="0 0 157 136" fill="none" xmlns="http://www.w3.org/2000/svg">
<circle cx="87.5" cy="96.5" r="36.5" stroke="black" stroke-width="6"/>
<circle cx="117.293" cy="26.9774" r="24.4774" stroke="black" stroke-width="5"/>
<circle cx="38.1204" cy="32.2556" r="29.7556" stroke="black" stroke-width="5"/>
<path d="M87.1071 85.776C87.4057 85.776 87.7684 85.9787 88.1951 86.384C88.6431 86.768 88.8671 87.0987 88.8671 87.376C88.8671 88.6773 88.8244 90.4587 88.7391 92.72C88.7177 93.2747 88.6964 93.9467 88.6751 94.736C88.6537 95.504 88.6431 96.4 88.6431 97.424C88.6431 100.667 88.8351 103.056 89.2191 104.592C89.1977 105.104 88.9951 105.477 88.6111 105.712C88.2271 105.925 87.8431 106.032 87.4591 106.032C86.6057 106.032 86.0404 105.733 85.7631 105.136C85.5071 104.539 85.3791 103.685 85.3791 102.576C85.3791 98.4587 85.4217 94.672 85.5071 91.216C83.0537 93.9467 81.1444 96.24 79.7791 98.096C79.7791 98.096 79.5871 98.224 79.2031 98.48C78.8404 98.8 78.5417 98.96 78.3071 98.96C77.7524 98.96 77.2937 98.8213 76.9311 98.544C76.5684 98.2667 76.2164 97.8613 75.8751 97.328L74.3391 95.152C73.2724 93.6587 72.4937 92.528 72.0031 91.76C72.0031 93.7227 72.0991 96.3893 72.2911 99.76C72.4404 101.701 72.5151 103.163 72.5151 104.144C72.5151 104.656 72.3871 105.093 72.1311 105.456C71.8751 105.797 71.4697 105.968 70.9151 105.968C70.3604 105.968 69.9017 105.861 69.5391 105.648C69.1977 105.435 69.0164 105.115 68.9951 104.688C69.0164 104.325 69.0271 103.728 69.0271 102.896C69.0271 101.232 68.9737 99.2053 68.8671 96.816L68.8031 95.088L68.7391 92.848C68.7177 92.1867 68.6964 91.4187 68.6751 90.544C68.6537 89.648 68.6431 88.6773 68.6431 87.632C68.6431 86.352 69.3364 85.712 70.7231 85.712C71.1497 85.712 71.5764 85.8187 72.0031 86.032C72.4511 86.2453 72.7817 86.5547 72.9951 86.96C73.1657 87.7067 73.7951 88.944 74.8831 90.672C75.9711 92.4 77.0377 94.0213 78.0831 95.536C79.0217 94.3413 79.7897 93.4453 80.3871 92.848C81.4111 91.8027 82.2537 90.832 82.9151 89.936C83.5977 89.04 84.3337 87.9627 85.1231 86.704C85.3151 86.448 85.5924 86.2347 85.9551 86.064C86.3177 85.872 86.7017 85.776 87.1071 85.776ZM104.743 105.936C105.319 106.341 105.703 106.789 105.895 107.28C106.109 107.771 106.215 108.453 106.215 109.328C106.215 109.755 106.087 110.181 105.831 110.608C105.597 111.035 105.351 111.344 105.095 111.536C103.069 112.645 101.042 113.2 99.0153 113.2C98.0126 113.2 97.1486 113.072 96.4233 112.816C95.698 112.56 95.0153 112.219 94.3753 111.792C93.9486 111.472 93.5966 111.024 93.3193 110.448C93.0633 109.893 92.9353 109.339 92.9353 108.784C92.9353 108.016 93.17 107.344 93.6393 106.768C94.13 106.192 94.7806 105.776 95.5913 105.52C95.442 105.2 95.3673 104.827 95.3673 104.4C95.3673 103.995 95.666 103.387 96.2633 102.576C95.2393 102.235 94.4286 101.627 93.8313 100.752C93.2553 99.8773 92.9673 98.8533 92.9673 97.68C92.9673 96.9547 93.138 96.3147 93.4793 95.76C93.8206 95.184 94.3326 94.5227 95.0153 93.776C95.4846 93.264 96.082 92.8907 96.8073 92.656C97.5326 92.4213 98.4393 92.304 99.5273 92.304C100.295 92.304 101.245 92.4747 102.375 92.816C103.719 91.8773 104.903 91.408 105.927 91.408C106.183 91.408 106.471 91.472 106.791 91.6C107.133 91.728 107.389 91.856 107.559 91.984C107.687 92.2187 107.751 92.6133 107.751 93.168C107.751 93.3813 107.655 93.5947 107.463 93.808C107.293 94 107.069 94.096 106.791 94.096L106.023 94.064C105.639 94.0213 105.341 94 105.127 94C104.893 94 104.541 94.0213 104.071 94.064C104.519 94.5973 104.861 95.1627 105.095 95.76C105.351 96.3573 105.479 97.136 105.479 98.096C105.479 98.8213 105.213 99.5787 104.679 100.368C104.146 101.157 103.517 101.776 102.791 102.224C101.682 102.821 100.391 103.131 98.9193 103.152C98.7486 103.323 98.5993 103.483 98.4713 103.632C98.3646 103.76 98.3113 103.867 98.3113 103.952C98.3113 104.187 98.514 104.368 98.9193 104.496C99.3246 104.624 99.9433 104.72 100.775 104.784C101.415 104.827 102.119 104.965 102.887 105.2C103.677 105.413 104.295 105.659 104.743 105.936ZM99.1113 100.528C100.093 100.528 100.882 100.261 101.479 99.728C102.077 99.1947 102.375 98.4373 102.375 97.456C102.375 96.7093 102.109 96.1013 101.575 95.632C101.042 95.1627 100.359 94.928 99.5273 94.928C98.994 94.928 98.418 95.024 97.7993 95.216C97.202 95.3867 96.7753 95.664 96.5193 96.048C96.3913 96.2187 96.2633 96.5493 96.1353 97.04C96.0073 97.5093 95.9433 97.872 95.9433 98.128C95.9433 98.4907 96.0926 98.864 96.3913 99.248C96.7113 99.6107 97.1166 99.92 97.6073 100.176C98.1193 100.411 98.6206 100.528 99.1113 100.528ZM101.127 107.472C99.954 107.365 99.122 107.259 98.6313 107.152C98.162 107.067 97.778 106.96 97.4793 106.832C96.3913 107.408 95.8473 108.037 95.8473 108.72C95.8473 109.36 96.178 109.84 96.8393 110.16C97.5006 110.501 98.258 110.672 99.1113 110.672C99.4953 110.672 100.018 110.629 100.679 110.544C101.341 110.459 101.895 110.309 102.343 110.096C102.642 109.947 102.866 109.797 103.015 109.648C103.165 109.52 103.239 109.275 103.239 108.912C103.239 108.464 103.005 108.123 102.535 107.888C102.066 107.653 101.597 107.515 101.127 107.472Z" fill="black"/>
<path d="M37.4153 24.24C37.7353 24.624 37.9593 24.9333 38.0873 25.168C38.2153 25.4027 38.2793 25.6267 38.2793 25.84C38.2793 26.096 38.1086 26.3947 37.7673 26.736C37.4473 27.0773 37.1273 27.248 36.8073 27.248C36.3806 27.248 36.0393 27.184 35.7833 27.056C35.5273 26.928 35.314 26.7253 35.1433 26.448C34.802 25.936 34.386 25.4987 33.8953 25.136C33.4046 24.752 32.6366 24.56 31.5913 24.56C30.6953 24.56 29.6713 24.7627 28.5193 25.168C27.3886 25.5733 26.578 26.0747 26.0873 26.672C25.6606 27.2053 25.2873 28.016 24.9673 29.104C24.6686 30.192 24.5193 31.248 24.5193 32.272C24.5193 33.5093 24.786 34.6507 25.3193 35.696C25.874 36.72 26.6633 37.5413 27.6873 38.16C28.7326 38.7787 29.9806 39.088 31.4313 39.088C32.2206 39.088 33.0313 38.9387 33.8633 38.64C34.7166 38.32 35.4526 37.808 36.0713 37.104H36.0393C36.4233 36.6987 36.9033 36.496 37.4793 36.496C37.8206 36.496 38.1406 36.6453 38.4393 36.944C38.7593 37.2427 38.9193 37.5413 38.9193 37.84C38.9193 38.16 38.866 38.448 38.7593 38.704C38.674 38.9387 38.5033 39.2053 38.2473 39.504C37.3726 40.4853 36.338 41.1573 35.1433 41.52C33.9486 41.8827 32.5193 42.064 30.8553 42.064C29.3833 42.064 27.89 41.712 26.3753 41.008C24.882 40.304 23.73 39.4507 22.9193 38.448C22.4926 37.8293 22.0766 36.944 21.6713 35.792C21.2873 34.6187 21.0953 33.6693 21.0953 32.944C21.0953 31.088 21.3726 29.328 21.9273 27.664C22.5033 25.9787 23.3566 24.6347 24.4873 23.632C25.234 22.9493 26.3113 22.4373 27.7193 22.096C29.1273 21.7547 30.418 21.584 31.5913 21.584C33.0206 21.584 34.1406 21.7867 34.9513 22.192C35.7833 22.576 36.6046 23.2587 37.4153 24.24ZM56.3138 40.464C56.3138 40.9333 56.0578 41.328 55.5458 41.648C55.0551 41.968 54.5965 42.128 54.1698 42.128C53.3591 42.128 52.7085 42.032 52.2178 41.84C51.7485 41.6267 51.3111 41.2427 50.9058 40.688C50.3511 41.1787 49.5938 41.552 48.6338 41.808C47.6738 42.0427 46.7885 42.16 45.9778 42.16C44.6551 42.16 43.5671 41.808 42.7138 41.104C41.8605 40.3787 41.4338 39.3227 41.4338 37.936C41.4338 37.3387 41.5938 36.7947 41.9138 36.304C42.2338 35.792 42.6711 35.344 43.2258 34.96C43.8445 34.5547 44.5485 34.2453 45.3378 34.032C46.1271 33.7973 46.9485 33.68 47.8018 33.68C48.2498 33.68 48.7831 33.7653 49.4018 33.936C50.0205 34.1067 50.5005 34.288 50.8418 34.48V33.968C50.8418 32.816 50.5645 32.0267 50.0098 31.6C49.4551 31.152 48.5591 30.928 47.3218 30.928C46.9591 30.928 46.5965 31.0027 46.2338 31.152C45.8925 31.3013 45.4978 31.504 45.0498 31.76C44.4525 32.08 43.8871 32.24 43.3538 32.24C43.1618 32.24 42.9805 32.112 42.8098 31.856C42.6391 31.5787 42.5538 31.3333 42.5538 31.12C42.5538 30.5013 42.8418 29.968 43.4178 29.52C44.0151 29.072 44.7191 28.7413 45.5298 28.528C46.3405 28.2933 47.0658 28.176 47.7058 28.176C48.3458 28.176 49.0818 28.304 49.9138 28.56C50.7458 28.7947 51.4285 29.1253 51.9618 29.552C52.6018 30.1067 53.0925 30.7573 53.4338 31.504C53.7965 32.2293 53.9778 33.0293 53.9778 33.904C53.9778 34.1813 53.9565 34.5973 53.9138 35.152C53.8711 35.7493 53.8498 36.2613 53.8498 36.688C53.8498 36.88 53.8285 37.168 53.7858 37.552C53.7431 38.0213 53.7218 38.3947 53.7218 38.672C53.7218 38.928 53.8178 39.152 54.0098 39.344C54.2018 39.5147 54.4258 39.6 54.6818 39.6L55.5778 39.568C55.8125 39.568 55.9938 39.6533 56.1218 39.824C56.2498 39.9947 56.3138 40.208 56.3138 40.464ZM46.0098 39.632C46.9271 39.632 47.6951 39.536 48.3138 39.344C48.9325 39.152 49.6791 38.8 50.5538 38.288C50.6391 37.9253 50.6925 37.4453 50.7138 36.848C49.5405 36.2933 48.5698 36.016 47.8018 36.016C46.9271 36.016 46.1485 36.176 45.4658 36.496C44.7831 36.816 44.4418 37.3813 44.4418 38.192C44.4418 38.5973 44.6125 38.9387 44.9538 39.216C45.2951 39.4933 45.6471 39.632 46.0098 39.632Z" fill="black"/>
<path d="M105.118 35.496C104.296 35.4213 103.746 35.2253 103.466 34.908C103.186 34.572 103.046 34.2267 103.046 33.872C103.046 33.648 103.092 33.396 103.186 33.116C103.279 32.836 103.372 32.64 103.466 32.528C104.343 31.4453 105.986 29.5413 108.394 26.816C110.802 24.0907 112.416 22.2707 113.238 21.356L112.146 21.3C111.156 21.244 110.326 21.216 109.654 21.216C109.411 21.216 108.795 21.2627 107.806 21.356C107.19 21.4493 106.63 21.496 106.126 21.496C105.398 21.496 104.866 21.4307 104.53 21.3C104.212 21.1507 104.016 20.9827 103.942 20.796C103.886 20.6093 103.858 20.348 103.858 20.012C103.858 19.7693 103.951 19.5267 104.138 19.284C104.343 19.0227 104.586 18.8733 104.866 18.836C105.612 18.7427 106.611 18.6587 107.862 18.584C109.112 18.4907 110.13 18.444 110.914 18.444C113.284 18.444 114.955 18.5653 115.926 18.808C116.168 18.8827 116.374 19.0693 116.542 19.368C116.71 19.6667 116.794 19.9 116.794 20.068C116.794 20.292 116.756 20.5253 116.682 20.768C116.626 21.0107 116.542 21.216 116.43 21.384C116.187 21.8133 115.627 22.5973 114.75 23.736C113.872 24.856 112.939 25.9853 111.95 27.124C110.904 28.356 109.831 29.5787 108.73 30.792C107.647 32.0053 106.947 32.78 106.63 33.116C107.152 33.0973 107.955 33.0507 109.038 32.976C110.792 32.864 112.108 32.808 112.986 32.808C113.676 32.808 114.442 32.8547 115.282 32.948C116.14 33.0413 116.784 33.228 117.214 33.508C117.344 33.5827 117.466 33.7973 117.578 34.152C117.708 34.5067 117.774 34.796 117.774 35.02C117.774 35.2627 117.652 35.4773 117.41 35.664C117.186 35.8507 116.868 35.944 116.458 35.944C116.42 35.944 116.01 35.9067 115.226 35.832C113.602 35.6453 112.528 35.552 112.006 35.552L110.018 35.58C109.122 35.6173 108.44 35.636 107.974 35.636C106.835 35.636 105.883 35.5893 105.118 35.496ZM132.427 33.844C132.52 33.8813 132.67 33.928 132.875 33.984C133.08 34.04 133.23 34.096 133.323 34.152C133.416 34.208 133.463 34.292 133.463 34.404C133.482 34.852 133.314 35.2253 132.959 35.524C132.623 35.804 132.222 35.944 131.755 35.944C131.027 35.944 130.458 35.748 130.047 35.356C129.636 34.964 129.338 34.3667 129.151 33.564C129.076 33.2467 129.039 32.808 129.039 32.248C129.039 31.9307 129.058 31.4173 129.095 30.708C129.132 29.9613 129.151 29.364 129.151 28.916C129.151 28.2627 128.964 27.6933 128.591 27.208C128.236 26.704 127.732 26.452 127.079 26.452C126.687 26.452 126.276 26.5733 125.847 26.816C125.418 27.04 125.119 27.32 124.951 27.656C124.671 28.1973 124.475 28.7853 124.363 29.42C124.158 30.54 124.055 31.7067 124.055 32.92C124.055 33.4987 124.064 33.9467 124.083 34.264C124.083 34.3387 124.083 34.488 124.083 34.712C124.102 34.9173 124.083 35.1133 124.027 35.3C123.99 35.468 123.915 35.6267 123.803 35.776C123.71 35.8693 123.56 35.944 123.355 36C123.168 36.0747 122.991 36.112 122.823 36.112C122.562 36.112 122.235 36 121.843 35.776C121.451 35.552 121.227 35.3 121.171 35.02L121.143 34.544C121.143 34.376 121.162 34.18 121.199 33.956C121.423 32.6493 121.535 31.5107 121.535 30.54C121.535 30.1107 121.526 29.7747 121.507 29.532L121.479 28.216C121.479 27.768 121.367 27.3387 121.143 26.928C120.919 26.4987 120.658 26.284 120.359 26.284C120.266 26.284 120.135 26.3213 119.967 26.396C119.799 26.452 119.659 26.48 119.547 26.48C119.36 26.48 119.155 26.3867 118.931 26.2C118.726 26.0133 118.623 25.8173 118.623 25.612C118.623 25.22 118.754 24.9027 119.015 24.66C119.295 24.436 119.566 24.2587 119.827 24.128C120.107 23.9973 120.424 23.932 120.779 23.932C121.078 23.932 121.32 23.96 121.507 24.016C121.694 24.072 121.946 24.1933 122.263 24.38C122.431 24.4733 122.627 24.6787 122.851 24.996C123.075 25.3133 123.262 25.7613 123.411 26.34C123.896 25.444 124.494 24.8187 125.203 24.464C125.931 24.0907 126.855 23.904 127.975 23.904C128.404 23.904 128.862 24.044 129.347 24.324C129.851 24.604 130.28 24.9307 130.635 25.304C130.971 25.7147 131.251 26.228 131.475 26.844C131.699 27.4413 131.811 27.9827 131.811 28.468C131.811 28.748 131.792 29.2053 131.755 29.84C131.699 30.344 131.671 30.876 131.671 31.436C131.671 32.7427 131.923 33.5453 132.427 33.844Z" fill="black"/>
</svg>
