<svg width="184" height="184" viewBox="0 0 184 184" fill="none" xmlns="http://www.w3.org/2000/svg">
<path d="M36.0082 163.764H32.014V167.758H36.0082V163.764Z" fill="#0BE89B"/>
<path d="M12.0427 159.77H8.04846V163.764H12.0427V159.77Z" fill="#0BE89B"/>
<path d="M59.9737 153.778H55.9795V157.773H59.9737V153.778Z" fill="#0BE89B"/>
<path d="M125.879 153.778H121.884V157.773H125.879V153.778Z" fill="#0BE89B"/>
<path d="M155.835 157.772H151.841V161.767H155.835V157.772Z" fill="#0BE89B"/>
<path d="M171.813 165.761H167.818V169.755H171.813V165.761Z" fill="#0BE89B"/>
<path d="M183.795 177.744L146.371 173.805L140.965 177.41C140.895 177.456 140.825 177.498 140.751 177.534L136.757 179.531L134.97 175.958L138.852 174.017L142.079 171.866L133.867 167.758H120.714L113.311 175.162C112.937 175.537 112.428 175.747 111.899 175.747H107.905V171.752H111.072L117.209 165.615L109.902 159.77H95.9218V143.743C130.29 142.684 157.833 114.511 157.833 79.8848C123.206 79.8848 95.0331 107.427 93.9746 141.796H91.8756C90.8191 107.427 62.6457 79.8848 28.0196 79.8848C28.0196 114.511 55.5619 142.684 89.9304 143.743V159.77H73.9534L66.9655 165.36L71.0656 168.094C71.3552 168.287 71.5889 168.551 71.7446 168.863L73.1905 171.752H79.9448V175.747H71.9563C71.1994 175.747 70.5084 175.319 70.1689 174.642L68.4094 171.121L63.3627 167.758H49.988L39.8206 172.116L45.1949 176.146L42.7983 179.341L35.429 173.813L0.0599136 177.744L0 183.735H183.795V177.744ZM150.429 84.4642L153.253 87.2881L103.325 137.216L100.501 134.392L150.429 84.4642ZM84.5562 137.248L38.6224 93.3114L41.3844 90.4256L87.3182 134.362L84.5562 137.248Z" fill="#0BE89B"/>
<path d="M61.9709 19.7695V33.9511C61.9709 34.5802 62.2664 35.1713 62.7697 35.5488L77.9478 46.9324V91.8677H81.9421V45.9338C81.9421 45.3047 81.6465 44.7136 81.1432 44.3361L65.9651 32.9525V19.7695C70.5225 18.8449 73.9536 14.8167 73.9536 9.98561C73.9536 4.47156 69.482 0 63.968 0C58.4539 0 53.9824 4.47156 53.9824 9.98561C53.9824 14.8167 57.4134 18.8449 61.9709 19.7695ZM63.968 7.98849C65.0704 7.98849 65.9651 8.8832 65.9651 9.98561C65.9651 11.088 65.0704 11.9827 63.968 11.9827C62.8656 11.9827 61.9709 11.088 61.9709 9.98561C61.9709 8.8832 62.8656 7.98849 63.968 7.98849Z" fill="#0BE89B"/>
<path d="M107.905 45.0052L118.999 37.6098C119.554 37.2384 119.887 36.6153 119.887 35.9482V19.7695C124.445 18.8449 127.876 14.8167 127.876 9.98561C127.876 4.47156 123.404 0 117.89 0C112.376 0 107.905 4.47156 107.905 9.98561C107.905 14.8167 111.336 18.8449 115.893 19.7695V34.8798L104.799 42.2751C104.244 42.6466 103.91 43.2697 103.91 43.9367V91.8677H107.905V45.0052ZM117.89 7.98849C118.993 7.98849 119.887 8.8832 119.887 9.98561C119.887 11.088 118.993 11.9827 117.89 11.9827C116.788 11.9827 115.893 11.088 115.893 9.98561C115.893 8.8832 116.788 7.98849 117.89 7.98849Z" fill="#0BE89B"/>
<path d="M135.864 45.7319V53.9221H119.887C118.785 53.9221 117.89 54.8168 117.89 55.9192V79.8847H121.884V57.9164H137.861C138.964 57.9164 139.859 57.0216 139.859 55.9192V45.7319C144.416 44.8072 147.847 40.7791 147.847 35.948C147.847 30.434 143.375 25.9624 137.861 25.9624C132.347 25.9624 127.876 30.434 127.876 35.948C127.876 40.7791 131.307 44.8072 135.864 45.7319ZM137.861 33.9509C138.964 33.9509 139.859 34.8456 139.859 35.948C139.859 37.0504 138.964 37.9451 137.861 37.9451C136.759 37.9451 135.864 37.0504 135.864 35.948C135.864 34.8456 136.759 33.9509 137.861 33.9509Z" fill="#0BE89B"/>
<path d="M43.9967 43.7348V55.9193C43.9967 57.0217 44.8914 57.9164 45.9938 57.9164H61.9708V77.8876H65.965V55.9193C65.965 54.8169 65.0703 53.9222 63.9679 53.9222H47.9909V43.7348C52.5483 42.8102 55.9794 38.782 55.9794 33.9509C55.9794 28.4369 51.5078 23.9653 45.9938 23.9653C40.4797 23.9653 36.0082 28.4369 36.0082 33.9509C36.0082 38.782 39.4392 42.8102 43.9967 43.7348ZM45.9938 31.9538C47.0962 31.9538 47.9909 32.8485 47.9909 33.9509C47.9909 35.0534 47.0962 35.9481 45.9938 35.9481C44.8914 35.9481 43.9967 35.0534 43.9967 33.9509C43.9967 32.8485 44.8914 31.9538 45.9938 31.9538Z" fill="#0BE89B"/>
<path d="M90.929 37.7436V97.859H94.9233V37.7436C99.4807 36.819 102.912 32.7908 102.912 27.9597C102.912 22.4457 98.4402 17.9741 92.9262 17.9741C87.4121 17.9741 82.9406 22.4457 82.9406 27.9597C82.9406 32.7908 86.3716 36.819 90.929 37.7436ZM92.9262 25.9626C94.0286 25.9626 94.9233 26.8573 94.9233 27.9597C94.9233 29.0621 94.0286 29.9569 92.9262 29.9569C91.8238 29.9569 90.929 29.0621 90.929 27.9597C90.929 26.8573 91.8238 25.9626 92.9262 25.9626Z" fill="#0BE89B"/>
</svg>
