<svg width="314" height="310" viewBox="0 0 314 310" fill="none" xmlns="http://www.w3.org/2000/svg">
<path fill-rule="evenodd" clip-rule="evenodd" d="M157 290C231.558 290 292 229.335 292 154.5C292 79.6654 231.558 19 157 19C82.4416 19 22 79.6654 22 154.5C22 229.335 82.4416 290 157 290ZM156.5 244C205.929 244 246 203.929 246 154.5C246 105.071 205.929 65 156.5 65C107.071 65 67 105.071 67 154.5C67 203.929 107.071 244 156.5 244Z" fill="#ACACAC"/>
<path d="M157.302 188.772C148.448 188.756 141.278 181.586 141.262 172.732C141.262 171.85 140.54 171.128 139.658 171.128C138.776 171.128 138.054 171.85 138.054 172.732C138.07 183.35 146.684 191.964 157.302 191.98C158.184 191.98 158.906 191.258 158.906 190.376C158.906 189.494 158.184 188.772 157.302 188.772Z" fill="white"/>
<path d="M157.607 123.457C156.981 122.848 155.987 122.848 155.377 123.457C154.351 124.468 130.034 148.463 130.034 172.957C130.034 187.874 141.904 200 156.5 200C171.097 200 182.966 187.874 182.966 172.957C182.966 148.319 158.649 124.468 157.607 123.457ZM156.5 196.792C143.668 196.792 133.242 186.093 133.242 172.957C133.242 152.714 151.72 131.942 156.5 126.906C161.28 131.926 179.758 152.602 179.758 172.957C179.758 186.093 169.316 196.792 156.5 196.792Z" fill="white"/>
<path fill-rule="evenodd" clip-rule="evenodd" d="M157.5 247C208.586 247 250 205.586 250 154.5C250 103.414 208.586 62 157.5 62C106.414 62 65 103.414 65 154.5C65 205.586 106.414 247 157.5 247ZM157.5 241C205.273 241 244 202.273 244 154.5C244 106.727 205.273 68 157.5 68C109.727 68 71 106.727 71 154.5C71 202.273 109.727 241 157.5 241Z" fill="black"/>
<circle cx="237" cy="74" r="5" fill="black"/>
<circle cx="237" cy="234" r="5" fill="black"/>
<circle cx="78" cy="234" r="5" fill="black"/>
<circle cx="78" cy="74" r="5" fill="black"/>
<path d="M125.313 161.1C126.875 159.538 129.408 159.538 130.97 161.1L131.2 161.33C132.762 162.892 132.762 165.425 131.2 166.987L89.1245 209.063L83.2375 203.176L125.313 161.1Z" fill="black"/>
<path d="M186.355 111.324C184.793 112.886 182.26 112.886 180.698 111.324L180.468 111.094C178.906 109.532 178.906 106.999 180.468 105.437L206.904 79.0005L212.791 84.8874L186.355 111.324Z" fill="black"/>
<path d="M208.222 158.817C206.66 160.379 204.127 160.379 202.565 158.817L202.335 158.587C200.773 157.025 200.773 154.492 202.335 152.93L237.265 118L243.152 123.887L208.222 158.817Z" fill="black"/>
<path d="M135.965 218.828C137.527 217.266 140.059 217.266 141.621 218.828L141.852 219.059C143.414 220.621 143.414 223.153 141.852 224.715L125.887 240.68L120 234.793L135.965 218.828Z" fill="black"/>
<rect x="162.887" y="135.152" width="8.32542" height="12.7921" rx="4" transform="rotate(-135 162.887 135.152)" fill="black"/>
<rect x="154.887" y="211.933" width="8.32542" height="19.1955" rx="4" transform="rotate(-135 154.887 211.933)" fill="black"/>
<rect x="275" y="182" width="5" height="57" rx="2.5" transform="rotate(180 275 182)" fill="black"/>
<rect x="275" y="223" width="5" height="32" rx="2.5" transform="rotate(180 275 223)" fill="black"/>
<rect x="275" y="116" width="5" height="32" rx="2.5" transform="rotate(180 275 116)" fill="black"/>
<path fill-rule="evenodd" clip-rule="evenodd" d="M270 87C270 81.4772 274.477 77 280 77H304C309.523 77 314 81.4772 314 87V222C314 227.523 309.523 232 304 232H280C274.477 232 270 227.523 270 222V220H276C276 223.866 279.134 227 283 227H302C305.866 227 309 223.866 309 220V89C309 85.134 305.866 82 302 82H283C279.134 82 276 85.134 276 89V90H270V87Z" fill="black"/>
<path fill-rule="evenodd" clip-rule="evenodd" d="M157.5 293C235.096 293 298 230.991 298 154.5C298 78.0086 235.096 16 157.5 16C79.904 16 17 78.0086 17 154.5C17 230.991 79.904 293 157.5 293ZM157.5 286C231.23 286 291 227.125 291 154.5C291 81.8746 231.23 23 157.5 23C83.77 23 24 81.8746 24 154.5C24 227.125 83.77 286 157.5 286Z" fill="black"/>
<mask id="path-20-inside-1_33_85" fill="white">
<path fill-rule="evenodd" clip-rule="evenodd" d="M178.948 287.727C178.983 288.205 179 288.688 179 289.175C179 300.221 170.046 309.175 159 309.175C147.954 309.175 139 300.22 139 289.175C139 288.44 139.04 287.714 139.117 287C140.737 287.269 142.367 287.51 144.007 287.722C144.002 287.872 144 288.023 144 288.175C144 296.459 150.716 303.175 159 303.175C167.252 303.175 173.948 296.511 174 288.272C175.658 288.12 177.308 287.938 178.948 287.727Z"/>
</mask>
<path fill-rule="evenodd" clip-rule="evenodd" d="M178.948 287.727C178.983 288.205 179 288.688 179 289.175C179 300.221 170.046 309.175 159 309.175C147.954 309.175 139 300.22 139 289.175C139 288.44 139.04 287.714 139.117 287C140.737 287.269 142.367 287.51 144.007 287.722C144.002 287.872 144 288.023 144 288.175C144 296.459 150.716 303.175 159 303.175C167.252 303.175 173.948 296.511 174 288.272C175.658 288.12 177.308 287.938 178.948 287.727Z" fill="black"/>
<path d="M178.948 287.727L179.946 287.656L179.87 286.601L178.821 286.735L178.948 287.727ZM139.117 287L139.281 286.014L138.236 285.84L138.123 286.893L139.117 287ZM144.007 287.722L145.006 287.751L145.033 286.846L144.135 286.73L144.007 287.722ZM174 288.272L173.909 287.276L173.005 287.358L173 288.265L174 288.272ZM180 289.175C180 288.664 179.982 288.158 179.946 287.656L177.951 287.799C177.983 288.253 178 288.712 178 289.175L180 289.175ZM159 310.175C170.598 310.175 180 300.773 180 289.175L178 289.175C178 299.668 169.493 308.175 159 308.175L159 310.175ZM138 289.175C138 300.773 147.402 310.175 159 310.175L159 308.175C148.507 308.175 140 299.668 140 289.175L138 289.175ZM138.123 286.893C138.042 287.643 138 288.404 138 289.175L140 289.175C140 288.476 140.038 287.786 140.111 287.108L138.123 286.893ZM144.135 286.73C142.507 286.52 140.889 286.281 139.281 286.014L138.953 287.987C140.585 288.258 142.227 288.5 143.879 288.713L144.135 286.73ZM143.007 287.692C143.002 287.852 143 288.013 143 288.175L145 288.175C145 288.033 145.002 287.892 145.006 287.751L143.007 287.692ZM143 288.175C143 297.011 150.163 304.175 159 304.175L159 302.175C151.268 302.175 145 295.907 145 288.175L143 288.175ZM159 304.175C167.802 304.175 174.944 297.067 175 288.278L173 288.265C172.951 295.955 166.702 302.175 159 302.175L159 304.175ZM178.821 286.735C177.193 286.945 175.555 287.125 173.909 287.276L174.091 289.267C175.762 289.115 177.423 288.932 179.076 288.719L178.821 286.735Z" fill="black" mask="url(#path-20-inside-1_33_85)"/>
<mask id="path-22-inside-2_33_85" fill="white">
<path fill-rule="evenodd" clip-rule="evenodd" d="M139.052 21.4475C139.017 20.9695 139 20.4868 139 20C139 8.9543 147.954 -1.56562e-06 159 -3.49691e-06C170.046 -5.4282e-06 179 8.9543 179 20C179 20.7348 178.96 21.4604 178.883 22.1747C177.263 21.9053 175.633 21.6646 173.993 21.4533C173.998 21.3027 174 21.1516 174 21C174 12.7157 167.284 6 159 6C150.748 6 144.052 12.6635 144 20.9033C142.342 21.055 140.692 21.2366 139.052 21.4475Z"/>
</mask>
<path fill-rule="evenodd" clip-rule="evenodd" d="M139.052 21.4475C139.017 20.9695 139 20.4868 139 20C139 8.9543 147.954 -1.56562e-06 159 -3.49691e-06C170.046 -5.4282e-06 179 8.9543 179 20C179 20.7348 178.96 21.4604 178.883 22.1747C177.263 21.9053 175.633 21.6646 173.993 21.4533C173.998 21.3027 174 21.1516 174 21C174 12.7157 167.284 6 159 6C150.748 6 144.052 12.6635 144 20.9033C142.342 21.055 140.692 21.2366 139.052 21.4475Z" fill="black"/>
<path d="M139.052 21.4475L138.054 21.5188L138.13 22.5743L139.179 22.4393L139.052 21.4475ZM178.883 22.1747L178.719 23.1612L179.764 23.3348L179.877 22.2822L178.883 22.1747ZM173.993 21.4533L172.994 21.4236L172.967 22.3292L173.865 22.4451L173.993 21.4533ZM144 20.9033L144.091 21.8991L144.995 21.8165L145 20.9096L144 20.9033ZM138 20C138 20.5106 138.018 21.0171 138.054 21.5188L140.049 21.3762C140.017 20.9218 140 20.4629 140 20L138 20ZM159 -1C147.402 -1 138 8.40202 138 20L140 20C140 9.50659 148.507 0.999998 159 0.999997L159 -1ZM180 20C180 8.40201 170.598 -1.00001 159 -1L159 0.999997C169.493 0.999995 178 9.50658 178 20L180 20ZM179.877 22.2822C179.958 21.5323 180 20.7708 180 20L178 20C178 20.6988 177.962 21.3885 177.889 22.0672L179.877 22.2822ZM173.865 22.4451C175.493 22.6549 177.111 22.8938 178.719 23.1612L179.047 21.1883C177.415 20.9169 175.773 20.6744 174.121 20.4615L173.865 22.4451ZM174.993 21.4829C174.998 21.3225 175 21.1615 175 21L173 21C173 21.1417 172.998 21.2829 172.994 21.4236L174.993 21.4829ZM175 21C175 12.1634 167.837 5 159 5L159 7C166.732 7 173 13.268 173 21L175 21ZM159 5C150.198 5 143.056 12.1078 143 20.897L145 20.9096C145.049 13.2193 151.298 7 159 7L159 5ZM139.179 22.4393C140.807 22.23 142.445 22.0497 144.091 21.8991L143.909 19.9075C142.238 20.0603 140.577 20.2432 138.924 20.4557L139.179 22.4393Z" fill="black" mask="url(#path-22-inside-2_33_85)"/>
<mask id="path-24-inside-3_33_85" fill="white">
<path fill-rule="evenodd" clip-rule="evenodd" d="M21.4475 177.948C20.9695 177.983 20.4868 178 20 178C8.9543 178 -3.91405e-07 169.046 -8.74228e-07 158C-1.35705e-06 146.954 8.9543 138 20 138C20.7348 138 21.4604 138.04 22.1747 138.117C21.9053 139.737 21.6646 141.367 21.4533 143.007C21.3027 143.002 21.1516 143 21 143C12.7157 143 6 149.716 6 158C6 166.252 12.6635 172.948 20.9033 173C21.055 174.658 21.2366 176.308 21.4475 177.948Z"/>
</mask>
<path fill-rule="evenodd" clip-rule="evenodd" d="M21.4475 177.948C20.9695 177.983 20.4868 178 20 178C8.9543 178 -3.91405e-07 169.046 -8.74228e-07 158C-1.35705e-06 146.954 8.9543 138 20 138C20.7348 138 21.4604 138.04 22.1747 138.117C21.9053 139.737 21.6646 141.367 21.4533 143.007C21.3027 143.002 21.1516 143 21 143C12.7157 143 6 149.716 6 158C6 166.252 12.6635 172.948 20.9033 173C21.055 174.658 21.2366 176.308 21.4475 177.948Z" fill="black"/>
<path d="M21.4475 177.948L21.5188 178.946L22.5743 178.87L22.4393 177.821L21.4475 177.948ZM22.1747 138.117L23.1612 138.281L23.3348 137.236L22.2822 137.123L22.1747 138.117ZM21.4533 143.007L21.4236 144.006L22.3292 144.033L22.4451 143.135L21.4533 143.007ZM20.9033 173L21.8991 172.909L21.8165 172.005L20.9096 172L20.9033 173ZM20 179C20.5106 179 21.0171 178.982 21.5188 178.946L21.3762 176.951C20.9218 176.983 20.4629 177 20 177L20 179ZM-1 158C-1 169.598 8.40202 179 20 179L20 177C9.50659 177 1 168.493 0.999999 158L-1 158ZM20 137C8.40202 137 -1 146.402 -1 158L0.999999 158C0.999999 147.507 9.50659 139 20 139L20 137ZM22.2822 137.123C21.5323 137.042 20.7708 137 20 137L20 139C20.6989 139 21.3885 139.038 22.0672 139.111L22.2822 137.123ZM22.4451 143.135C22.6549 141.507 22.8938 139.889 23.1612 138.281L21.1883 137.953C20.9169 139.585 20.6744 141.227 20.4615 142.879L22.4451 143.135ZM21.4829 142.007C21.3225 142.002 21.1615 142 21 142L21 144C21.1417 144 21.283 144.002 21.4236 144.006L21.4829 142.007ZM21 142C12.1634 142 5 149.163 5 158L7 158C7 150.268 13.268 144 21 144L21 142ZM5 158C5 166.802 12.1078 173.944 20.897 174L20.9096 172C13.2193 171.951 7 165.702 7 158L5 158ZM22.4393 177.821C22.23 176.193 22.0497 174.555 21.8991 172.909L19.9075 173.091C20.0603 174.762 20.2432 176.423 20.4557 178.076L22.4393 177.821Z" fill="black" mask="url(#path-24-inside-3_33_85)"/>
</svg>
